<svg
  version="1.1"
  xmlns="http://www.w3.org/2000/svg"
  style="display: block"
  viewBox="436.65 290.44 1173.59 1221.69"
>
  <defs>
    <linearGradient
      id="Gradient1"
      gradientUnits="userSpaceOnUse"
      x1="1020.46"
      y1="966.086"
      x2="1025.53"
      y2="290.944"
    >
      <stop
        class="stop0"
        offset="0"
        stop-opacity="1"
        stop-color="rgb(123,52,251)"
      ></stop>
      <stop
        class="stop1"
        offset="1"
        stop-opacity="1"
        stop-color="rgb(1,182,247)"
      ></stop>
    </linearGradient>
  </defs>
  <path
    transform="translate(0,0)"
    fill="url(#Gradient1)"
    d="M 544.965 525.535 C 570.721 511.083 597.43 498.068 623.685 484.526 L 792.53 397.381 C 843.451 370.489 894.495 343.657 946.028 317.954 C 1030.81 275.667 1040.23 284.111 1129.27 329.741 L 1498.49 521.259 C 1519.98 532.576 1565.64 550.612 1581.9 567.704 C 1620 592.637 1614.63 667.658 1579.32 692.224 C 1568.72 699.599 1556.74 704.841 1545.35 710.857 L 1137.74 921.843 C 1060.97 960.726 1038.34 988.583 950.47 942.953 L 888.669 910.364 L 552.229 738.445 C 496.921 710.435 409.513 682.14 444.804 596.883 C 458.391 564.057 511.6 539.557 544.965 525.535 z"
  ></path>
  <path
    transform="translate(0,0)"
    fill="rgb(186,64,234)"
    d="M 544.965 804.736 C 566.365 818.255 590.074 828.979 612.631 840.471 L 889.202 982.585 C 1025.4 1053.06 1027.86 1048.24 1155.26 983.953 L 1395.41 861.905 C 1424.86 846.884 1473.94 817.636 1504.33 807.93 C 1522.8 814.862 1540.88 825.81 1558.43 834.931 C 1599.47 855.279 1618.09 886.832 1604.66 933.258 C 1593.92 970.396 1543.22 986.397 1509.89 1004.58 C 1477.57 1022.21 1444.37 1038.38 1411.56 1055.1 L 1131.3 1200.76 C 1007.9 1264.02 1004.76 1247.44 891.05 1187.76 L 518.37 995.861 C 474.359 973.387 422.369 946.831 441.689 884.626 C 449.877 858.26 468.105 844.059 491.589 831.837 C 509.233 822.775 526.872 812.82 544.965 804.736 z"
  ></path>
  <path
    transform="translate(0,0)"
    fill="rgb(155,56,229)"
    d="M 544.965 804.736 C 566.365 818.255 590.074 828.979 612.631 840.471 L 889.202 982.585 C 1025.4 1053.06 1027.86 1048.24 1155.26 983.953 L 1395.41 861.905 C 1424.86 846.884 1473.94 817.636 1504.33 807.93 C 1522.8 814.862 1540.88 825.81 1558.43 834.931 C 1551.9 847.231 1458.63 887.974 1440.11 897.335 L 1234.59 1002.15 C 1185.81 1026.75 1138.93 1056.89 1088.93 1078.84 C 1007.91 1114.4 954.399 1077.2 884.312 1040.09 L 563.497 873.352 C 549.161 865.769 497.292 844.904 491.589 831.837 C 509.233 822.775 526.872 812.82 544.965 804.736 z"
  ></path>
  <path
    transform="translate(0,0)"
    fill="rgb(36,37,91)"
    d="M 1504.33 1078.17 C 1517 1079.25 1532.8 1091.3 1544.04 1096.78 C 1569.72 1109.31 1593.31 1119.03 1604.08 1147.69 C 1632.3 1222.79 1557.32 1248.8 1507.33 1274.62 L 1111.3 1483 C 1033.66 1523.46 1011.93 1521.68 929.908 1478.29 L 852.932 1437.47 L 603.265 1309.8 C 583.872 1299.92 564.713 1289.5 544.965 1280.35 C 510.434 1257.12 461.811 1250.29 444.466 1207.73 C 415.857 1137.55 484.1 1100.25 539.697 1078.17 C 551.296 1082.5 562.539 1088.81 573.538 1094.46 L 865.213 1244.71 C 977.705 1301.43 1009.34 1334.46 1125.18 1273.85 L 1195.66 1236.13 C 1224.14 1221.02 1253.15 1206.86 1281.82 1192.1 L 1463.31 1098.77 C 1476.28 1092.05 1489.05 1084.61 1502.51 1078.93 L 1504.33 1078.17 z"
  ></path>
</svg>